<svg width="36" height="36" viewBox="0 0 36 36" fill="none" xmlns="http://www.w3.org/2000/svg">
<path d="M7.218 25.4449L3.8538 3.60027H1.8C1.32261 3.60027 0.864773 3.41063 0.527208 3.07307C0.189642 2.73551 0 2.27768 0 1.80029C0 1.3229 0.189642 0.865071 0.527208 0.527508C0.864773 0.189945 1.32261 0.000304788 1.8 0.000304788H5.373C5.80724 -0.00771188 6.22954 0.142652 6.561 0.423301C6.90121 0.709385 7.12314 1.11155 7.1838 1.55189L7.7742 5.40026H21.6V9.00023H8.3286L10.5426 23.4001H27.4608L30.1608 14.4002H33.9192L30.5244 25.7167C30.4133 26.0876 30.1855 26.4129 29.8748 26.6441C29.5642 26.8753 29.1872 27.0001 28.8 27.0001H9.0288C8.58225 27.0083 8.1488 26.8491 7.8138 26.5537C7.48743 26.2682 7.2752 25.8744 7.2162 25.4449H7.218ZM14.4 32.4C14.4 33.3548 14.0207 34.2705 13.3456 34.9456C12.6705 35.6207 11.7548 36 10.8 36C9.84522 36 8.92955 35.6207 8.25442 34.9456C7.57929 34.2705 7.2 33.3548 7.2 32.4C7.2 31.4453 7.57929 30.5296 8.25442 29.8545C8.92955 29.1793 9.84522 28.8001 10.8 28.8001C11.7548 28.8001 12.6705 29.1793 13.3456 29.8545C14.0207 30.5296 14.4 31.4453 14.4 32.4ZM30.6 32.4C30.6 33.3548 30.2207 34.2705 29.5456 34.9456C28.8705 35.6207 27.9548 36 27 36C26.0452 36 25.1295 35.6207 24.4544 34.9456C23.7793 34.2705 23.4 33.3548 23.4 32.4C23.4 31.4453 23.7793 30.5296 24.4544 29.8545C25.1295 29.1793 26.0452 28.8001 27 28.8001C27.9548 28.8001 28.8705 29.1793 29.5456 29.8545C30.2207 30.5296 30.6 31.4453 30.6 32.4ZM30.6 0.000304788C31.0774 0.000304788 31.5352 0.189945 31.8728 0.527508C32.2104 0.865071 32.4 1.3229 32.4 1.80029V3.60027H34.2C34.6774 3.60027 35.1352 3.78992 35.4728 4.12748C35.8104 4.46504 36 4.92287 36 5.40026C36 5.87764 35.8104 6.33548 35.4728 6.67304C35.1352 7.0106 34.6774 7.20024 34.2 7.20024H32.4V9.00023C32.4 9.47761 32.2104 9.93545 31.8728 10.273C31.5352 10.6106 31.0774 10.8002 30.6 10.8002C30.1226 10.8002 29.6648 10.6106 29.3272 10.273C28.9896 9.93545 28.8 9.47761 28.8 9.00023V7.20024H27C26.5226 7.20024 26.0648 7.0106 25.7272 6.67304C25.3896 6.33548 25.2 5.87764 25.2 5.40026C25.2 4.92287 25.3896 4.46504 25.7272 4.12748C26.0648 3.78992 26.5226 3.60027 27 3.60027H28.8V1.80029C28.8 1.3229 28.9896 0.865071 29.3272 0.527508C29.6648 0.189945 30.1226 0.000304788 30.6 0.000304788Z" fill="#5D5D5D"/>
</svg>
