<svg width="49" height="40" viewBox="0 0 49 40" fill="none" xmlns="http://www.w3.org/2000/svg">
<path d="M24.5 28.8489C28.6423 28.8489 32 25.8433 32 22.1355C32 18.4277 28.6423 15.4221 24.5 15.4221C20.3577 15.4221 17 18.4277 17 22.1355C17 25.8433 20.3577 28.8489 24.5 28.8489Z" stroke="#5D5D5D" stroke-width="4" stroke-linecap="round" stroke-linejoin="round"/>
<path d="M2 30.6437V13.6365C2 11.13 2 9.87667 2.54497 8.9193C3.02432 8.07715 3.78923 7.39248 4.73005 6.9634C5.7996 6.47559 7.19975 6.47559 10 6.47559H12.6366C12.944 6.47559 13.0976 6.47559 13.2394 6.46104C13.9791 6.3852 14.6426 6.01816 15.0492 5.45983C15.1272 5.35282 15.1959 5.22976 15.3333 4.98372C15.6082 4.4916 15.7457 4.24554 15.9016 4.03151C16.7148 2.91485 18.0417 2.18077 19.5213 2.02907C19.8048 2 20.112 2 20.7267 2H28.2733C28.888 2 29.1952 2 29.4787 2.02907C30.9582 2.18077 32.2852 2.91485 33.0985 4.03151C33.2542 4.24551 33.3918 4.49167 33.6668 4.98372C33.804 5.22978 33.8728 5.35282 33.9508 5.45983C34.3575 6.01816 35.0207 6.3852 35.7605 6.46104C35.9025 6.47559 36.056 6.47559 36.3635 6.47559H39C41.8002 6.47559 43.2005 6.47559 44.27 6.9634C45.2108 7.39248 45.9757 8.07715 46.455 8.9193C47 9.87667 47 11.13 47 13.6365V30.6437C47 33.1503 47 34.4037 46.455 35.361C45.9757 36.2031 45.2108 36.8879 44.27 37.3168C43.2005 37.8047 41.8002 37.8047 39 37.8047H10C7.19975 37.8047 5.7996 37.8047 4.73005 37.3168C3.78923 36.8879 3.02432 36.2031 2.54497 35.361C2 34.4037 2 33.1503 2 30.6437Z" stroke="#5D5D5D" stroke-width="4" stroke-linecap="round" stroke-linejoin="round"/>
</svg>
