<svg width="22" height="22" viewBox="0 0 22 22" fill="none" xmlns="http://www.w3.org/2000/svg">
<path d="M2.36827 2.20015L4.41095 14.4607C4.44825 14.7175 4.57576 14.9526 4.77064 15.124C4.97622 15.3063 5.24277 15.4048 5.51753 15.4001H17.5998C17.8307 15.4001 18.0559 15.3275 18.2432 15.1924C18.4306 15.0574 18.5707 14.8668 18.6437 14.6477L21.9436 4.74773C21.9987 4.58237 22.0137 4.40628 21.9874 4.23399C21.9611 4.06169 21.8942 3.89812 21.7922 3.75675C21.6903 3.61537 21.5562 3.50025 21.401 3.42087C21.2459 3.34148 21.074 3.3001 20.8997 3.30014H4.78164L4.38895 0.935163C4.34863 0.664952 4.20852 0.419658 3.99625 0.247668C3.79507 0.0832956 3.54211 -0.00440154 3.28236 0.000170123H1.09999C0.808252 0.000170123 0.528466 0.116062 0.322179 0.32235C0.115891 0.528638 0 0.808426 0 1.10016C0 1.3919 0.115891 1.67168 0.322179 1.87797C0.528466 2.08426 0.808252 2.20015 1.09999 2.20015H2.36827ZM6.43162 13.2001L5.14794 5.50013H19.3741L16.8067 13.2001H6.43162ZM8.79989 19.8C8.79989 20.3835 8.56811 20.9431 8.15554 21.3556C7.74296 21.7682 7.18339 22 6.59992 22C6.01645 22 5.45688 21.7682 5.0443 21.3556C4.63173 20.9431 4.39995 20.3835 4.39995 19.8C4.39995 19.2165 4.63173 18.657 5.0443 18.2444C5.45688 17.8318 6.01645 17.6 6.59992 17.6C7.18339 17.6 7.74296 17.8318 8.15554 18.2444C8.56811 18.657 8.79989 19.2165 8.79989 19.8ZM18.6998 19.8C18.6998 20.3835 18.468 20.9431 18.0554 21.3556C17.6428 21.7682 17.0833 22 16.4998 22C15.9163 22 15.3568 21.7682 14.9442 21.3556C14.5316 20.9431 14.2998 20.3835 14.2998 19.8C14.2998 19.2165 14.5316 18.657 14.9442 18.2444C15.3568 17.8318 15.9163 17.6 16.4998 17.6C17.0833 17.6 17.6428 17.8318 18.0554 18.2444C18.468 18.657 18.6998 19.2165 18.6998 19.8Z" fill="white"/>
</svg>
