<svg width="22" height="22" viewBox="0 0 22 22" fill="none" xmlns="http://www.w3.org/2000/svg">
<path fill-rule="evenodd" clip-rule="evenodd" d="M11 0C10.258 0 9.58115 0.20374 8.84019 0.549591C8.12293 0.88438 7.29348 1.37849 6.25397 1.99773L4.7645 2.885C3.61937 3.56713 2.70687 4.11069 2.01597 4.63048C1.30275 5.16706 0.767434 5.71959 0.418586 6.44725C0.0695737 7.17526 -0.0250262 7.93719 0.00531331 8.82644C0.034691 9.68716 0.185263 10.7336 0.374064 12.0457L0.673223 14.1247C0.916133 15.813 1.10888 17.1526 1.39687 18.1957C1.69373 19.2709 2.11493 20.1243 2.87499 20.7787C3.63444 21.4327 4.54309 21.7252 5.65486 21.8646C6.7346 22 8.09683 22 9.81538 22H12.1846C13.9032 22 15.2654 22 16.3452 21.8646C17.4569 21.7252 18.3656 21.4327 19.1251 20.7787C19.885 20.1243 20.3063 19.2709 20.6031 18.1957C20.8911 17.1527 21.0839 15.813 21.3268 14.1247L21.6259 12.0457C21.8148 10.7335 21.9653 9.68716 21.9947 8.82644C22.0251 7.93719 21.9304 7.17526 21.5814 6.44725C21.2326 5.71959 20.6973 5.16706 19.9841 4.63048C19.2932 4.11069 18.3806 3.56713 17.2355 2.885L15.7461 1.99773C14.7065 1.37849 13.8771 0.88438 13.1598 0.549591C12.4188 0.20374 11.742 0 11 0ZM7.00478 3.33705C8.08688 2.69245 8.85037 2.23869 9.48937 1.94043C10.1126 1.64952 10.5608 1.53488 11 1.53488C11.4393 1.53488 11.8874 1.64952 12.5106 1.94043C13.1497 2.23869 13.9131 2.69245 14.9952 3.33705L16.4123 4.18118C17.6037 4.89089 18.4444 5.39291 19.0613 5.85701C19.6634 6.31003 19.9932 6.68487 20.1973 7.11078C20.4014 7.53633 20.4862 8.02577 20.4607 8.7741C20.4345 9.54135 20.2969 10.5051 20.1004 11.8709L19.8151 13.8532C19.5629 15.6063 19.3826 16.8491 19.1236 17.7873C18.8705 18.704 18.5658 19.2348 18.1235 19.6156C17.6805 19.9971 17.1064 20.2223 16.1541 20.3417C15.181 20.4637 13.915 20.4651 12.1318 20.4651H9.86818C8.08499 20.4651 6.81903 20.4637 5.84586 20.3417C4.89368 20.2223 4.31946 19.9971 3.87651 19.6156C3.43419 19.2348 3.12951 18.704 2.87639 17.7873C2.6174 16.8491 2.43709 15.6063 2.18486 13.8532L1.8996 11.8708C1.70308 10.5051 1.56549 9.54135 1.53931 8.7741C1.51378 8.02577 1.59862 7.53633 1.80264 7.11078C2.00682 6.68487 2.33658 6.31003 2.93873 5.85701C3.55563 5.39291 4.39635 4.89089 5.58773 4.18118L7.00478 3.33705Z" fill="white"/>
</svg>
