<svg width="19" height="22" viewBox="0 0 19 22" fill="none" xmlns="http://www.w3.org/2000/svg">
<path d="M3.125 4.33333L3.97596 17.681C4.05044 18.85 4.08773 19.4346 4.32913 19.8778C4.54174 20.268 4.8624 20.5817 5.24883 20.7776C5.68775 21 6.24801 21 7.36841 21H11.6316C12.752 21 13.3122 21 13.7512 20.7776C14.1376 20.5817 14.4583 20.268 14.6708 19.8778C14.9123 19.4346 14.9496 18.85 15.0241 17.681L15.875 4.33333M18 4.33333H1M5.25 4.33333L5.53751 3.43119C5.81621 2.55694 5.95561 2.11982 6.21401 1.79664C6.44223 1.51126 6.73527 1.29036 7.06634 1.1542C7.4413 1 7.88181 1 8.76305 1H10.2369C11.1182 1 11.5587 1 11.9336 1.1542C12.2647 1.29036 12.5578 1.51126 12.786 1.79664C13.0444 2.11982 13.1838 2.55694 13.4624 3.43119L13.75 4.33333M7.375 8.77778V16.5556M11.625 8.77778V16.5556" stroke="white" stroke-linecap="round" stroke-linejoin="round"/>
</svg>
