<svg width="249" height="60" viewBox="0 0 249 60" fill="none" xmlns="http://www.w3.org/2000/svg">
<path d="M192.862 9.82764H141.138C139.138 9.82764 137.517 11.4487 137.517 13.4483V46.5518C137.517 48.5514 139.138 50.1725 141.138 50.1725H192.862C194.862 50.1725 196.483 48.5514 196.483 46.5518V13.4483C196.483 11.4487 194.862 9.82764 192.862 9.82764Z" fill="white" stroke="#F3F3F3" stroke-width="1.03448"/>
<path fill-rule="evenodd" clip-rule="evenodd" d="M164.351 30.265L164.612 28.601L164.03 28.5874H161.251L163.182 16.3086C163.188 16.2714 163.208 16.2369 163.236 16.2123C163.265 16.1878 163.301 16.1743 163.339 16.1743H168.024C169.58 16.1743 170.653 16.4989 171.214 17.1395C171.476 17.44 171.644 17.7542 171.725 18.0998C171.81 18.4625 171.811 18.8957 171.728 19.4243L171.722 19.4627V19.8015L171.985 19.9507C172.206 20.0685 172.382 20.2032 172.517 20.3573C172.742 20.6144 172.887 20.9411 172.948 21.3282C173.012 21.7263 172.991 22.2003 172.887 22.7368C172.767 23.3539 172.573 23.8914 172.312 24.3312C172.071 24.7364 171.764 25.0726 171.4 25.333C171.052 25.5805 170.639 25.7684 170.172 25.8886C169.72 26.0067 169.204 26.0663 168.638 26.0663H168.273C168.013 26.0663 167.759 26.1605 167.56 26.3293C167.361 26.5016 167.229 26.7371 167.189 26.9944L167.161 27.1443L166.7 30.0772L166.679 30.1848C166.673 30.2189 166.664 30.2359 166.65 30.2474C166.637 30.2579 166.619 30.265 166.602 30.265H164.351Z" fill="#28356A"/>
<path fill-rule="evenodd" clip-rule="evenodd" d="M172.234 19.502C172.22 19.5916 172.204 19.6832 172.186 19.7774C171.568 22.9588 169.454 24.0578 166.754 24.0578H165.38C165.05 24.0578 164.771 24.2981 164.72 24.6247L163.817 30.3697C163.783 30.5843 163.948 30.7774 164.164 30.7774H166.602C166.891 30.7774 167.136 30.5671 167.181 30.2816L167.205 30.1574L167.664 27.236L167.694 27.0758C167.739 26.7893 167.985 26.5788 168.273 26.5788H168.638C171 26.5788 172.849 25.6172 173.39 22.834C173.615 21.6714 173.498 20.7006 172.901 20.0178C172.72 19.8121 172.496 19.6411 172.234 19.502Z" fill="#298FC2"/>
<path fill-rule="evenodd" clip-rule="evenodd" d="M171.587 19.2434C171.493 19.2157 171.395 19.1908 171.295 19.1682C171.195 19.1462 171.092 19.1267 170.986 19.1095C170.616 19.0495 170.21 19.021 169.775 19.021H166.102C166.012 19.021 165.926 19.0415 165.849 19.0785C165.68 19.1602 165.554 19.321 165.523 19.5178L164.742 24.48L164.72 24.6246C164.771 24.298 165.049 24.0576 165.38 24.0576H166.754C169.454 24.0576 171.568 22.9581 172.186 19.7772C172.204 19.6831 172.22 19.5915 172.233 19.5018C172.077 19.4186 171.908 19.3475 171.726 19.2869C171.68 19.2719 171.634 19.2574 171.587 19.2434Z" fill="#22284F"/>
<path fill-rule="evenodd" clip-rule="evenodd" d="M165.523 19.5181C165.554 19.3213 165.679 19.1605 165.849 19.0794C165.926 19.0422 166.012 19.0217 166.102 19.0217H169.774C170.209 19.0217 170.616 19.0504 170.986 19.1104C171.092 19.1274 171.195 19.147 171.295 19.1691C171.395 19.1915 171.493 19.2166 171.587 19.2441C171.634 19.2582 171.68 19.2727 171.726 19.2872C171.908 19.3478 172.078 19.4195 172.234 19.5021C172.418 18.3265 172.232 17.526 171.598 16.8012C170.9 16.0031 169.639 15.6616 168.025 15.6616H163.339C163.01 15.6616 162.729 15.902 162.678 16.2292L160.726 28.6342C160.688 28.8796 160.876 29.1011 161.123 29.1011H164.016L165.523 19.5181Z" fill="#28356A"/>
<path fill-rule="evenodd" clip-rule="evenodd" d="M150.546 33.6421H147.13C146.896 33.6421 146.698 33.8124 146.661 34.0439L145.279 42.8283C145.252 43.0018 145.386 43.1579 145.561 43.1579H147.192C147.426 43.1579 147.625 42.9877 147.661 42.7558L148.034 40.3864C148.07 40.1545 148.269 39.9842 148.502 39.9842H149.584C151.834 39.9842 153.132 38.8921 153.472 36.7283C153.624 35.7815 153.478 35.0377 153.036 34.5167C152.55 33.9447 151.689 33.6421 150.546 33.6421ZM150.94 36.8505C150.753 38.0797 149.817 38.0797 148.911 38.0797H148.396L148.757 35.784C148.779 35.6453 148.899 35.5431 149.039 35.5431H149.275C149.892 35.5431 150.474 35.5431 150.774 35.8957C150.954 36.106 151.009 36.4186 150.94 36.8505Z" fill="#28356A"/>
<path fill-rule="evenodd" clip-rule="evenodd" d="M160.845 36.7447H159.209C159.069 36.7447 158.949 36.8469 158.927 36.9856L158.855 37.4444L158.741 37.2782C158.387 36.7627 157.597 36.5903 156.809 36.5903C155.001 36.5903 153.457 37.9634 153.156 39.8894C153 40.8501 153.222 41.7688 153.766 42.4095C154.264 42.9985 154.978 43.244 155.826 43.244C157.283 43.244 158.09 42.3048 158.09 42.3048L158.017 42.7607C157.99 42.9349 158.124 43.0912 158.298 43.0912H159.772C160.006 43.0912 160.204 42.921 160.241 42.689L161.125 37.0743C161.153 36.9014 161.019 36.7447 160.845 36.7447ZM158.564 39.9376C158.406 40.8746 157.665 41.5038 156.719 41.5038C156.244 41.5038 155.864 41.351 155.62 41.0616C155.379 40.7741 155.287 40.3648 155.364 39.909C155.511 38.9798 156.265 38.33 157.197 38.33C157.661 38.33 158.039 38.485 158.288 38.7768C158.537 39.0718 158.636 39.4837 158.564 39.9376Z" fill="#28356A"/>
<path fill-rule="evenodd" clip-rule="evenodd" d="M169.431 36.8853H167.787C167.63 36.8853 167.483 36.9635 167.394 37.0942L165.126 40.4433L164.165 37.2249C164.105 37.0235 163.92 36.8853 163.71 36.8853H162.095C161.898 36.8853 161.762 37.0777 161.824 37.263L163.635 42.5917L161.933 45.0016C161.799 45.1914 161.934 45.4524 162.165 45.4524H163.807C163.963 45.4524 164.108 45.3762 164.197 45.2481L169.664 37.3336C169.795 37.1443 169.661 36.8853 169.431 36.8853Z" fill="#28356A"/>
<path fill-rule="evenodd" clip-rule="evenodd" d="M174.911 33.6421H171.494C171.261 33.6421 171.062 33.8124 171.026 34.0439L169.644 42.8283C169.617 43.0018 169.751 43.1579 169.925 43.1579H171.678C171.841 43.1579 171.98 43.0388 172.006 42.8765L172.398 40.3864C172.434 40.1545 172.633 39.9842 172.866 39.9842H173.947C176.198 39.9842 177.496 38.8921 177.836 36.7283C177.989 35.7815 177.842 35.0377 177.4 34.5167C176.915 33.9447 176.054 33.6421 174.911 33.6421ZM175.305 36.8505C175.119 38.0797 174.182 38.0797 173.276 38.0797H172.761L173.123 35.784C173.145 35.6453 173.263 35.5431 173.404 35.5431H173.64C174.256 35.5431 174.839 35.5431 175.139 35.8957C175.319 36.106 175.373 36.4186 175.305 36.8505Z" fill="#298FC2"/>
<path fill-rule="evenodd" clip-rule="evenodd" d="M185.207 36.7447H183.572C183.432 36.7447 183.312 36.8469 183.291 36.9856L183.219 37.4444L183.104 37.2782C182.75 36.7627 181.961 36.5903 181.173 36.5903C179.365 36.5903 177.822 37.9634 177.521 39.8894C177.365 40.8501 177.586 41.7688 178.13 42.4095C178.629 42.9985 179.341 43.244 180.19 43.244C181.647 43.244 182.454 42.3048 182.454 42.3048L182.381 42.7607C182.354 42.9349 182.488 43.0912 182.663 43.0912H184.136C184.369 43.0912 184.568 42.921 184.605 42.689L185.489 37.0743C185.516 36.9014 185.382 36.7447 185.207 36.7447ZM182.927 39.9376C182.77 40.8746 182.027 41.5038 181.081 41.5038C180.607 41.5038 180.227 41.351 179.983 41.0616C179.741 40.7741 179.65 40.3648 179.726 39.909C179.874 38.9798 180.628 38.33 181.559 38.33C182.024 38.33 182.401 38.485 182.65 38.7768C182.9 39.0718 182.999 39.4837 182.927 39.9376Z" fill="#298FC2"/>
<path fill-rule="evenodd" clip-rule="evenodd" d="M186.999 33.8835L185.597 42.8287C185.569 43.0022 185.703 43.1583 185.877 43.1583H187.287C187.521 43.1583 187.72 42.9881 187.756 42.7562L189.139 33.9722C189.166 33.7988 189.032 33.6421 188.858 33.6421H187.28C187.14 33.6425 187.02 33.7448 186.999 33.8835Z" fill="#298FC2"/>
<path d="M238.282 38.7388C237.573 38.7404 236.871 38.6016 236.216 38.3303C235.56 38.0591 234.966 37.6609 234.465 37.1586L228.953 31.6461C228.758 31.4607 228.499 31.3573 228.23 31.3573C227.96 31.3573 227.701 31.4607 227.506 31.6461L221.973 37.1796C221.473 37.6821 220.878 38.0805 220.223 38.3517C219.568 38.623 218.865 38.7617 218.156 38.7598H217.069L224.052 45.7423C226.231 47.9211 229.766 47.9211 231.945 45.7423L238.946 38.7388H238.282ZM218.156 19.2403C219.6 19.2403 220.954 19.8021 221.973 20.8206L227.506 26.3541C227.601 26.4493 227.714 26.5249 227.839 26.5764C227.963 26.628 228.096 26.6545 228.231 26.6545C228.365 26.6545 228.499 26.628 228.623 26.5764C228.747 26.5249 228.86 26.4493 228.955 26.3541L234.468 20.8416C234.968 20.3394 235.562 19.9411 236.217 19.6699C236.871 19.3987 237.573 19.2598 238.282 19.2613H238.946L231.945 12.2604C230.898 11.2142 229.479 10.6265 227.999 10.6265C226.518 10.6265 225.099 11.2142 224.052 12.2604L217.069 19.2429L218.156 19.2403Z" fill="#3EB57C"/>
<path d="M244.74 25.0521L240.508 20.8206C240.413 20.8596 240.312 20.8801 240.209 20.881H238.285C237.29 20.881 236.316 21.2852 235.615 21.9887L230.103 27.5012C229.858 27.7477 229.566 27.9432 229.245 28.0767C228.924 28.2101 228.58 28.2788 228.232 28.2788C227.885 28.2788 227.541 28.2101 227.22 28.0767C226.899 27.9432 226.607 27.7477 226.362 27.5012L220.829 21.9651C220.119 21.2581 219.158 20.86 218.156 20.8574H215.794C215.696 20.8566 215.599 20.8379 215.508 20.8022L211.261 25.0521C209.082 27.2309 209.082 30.7667 211.261 32.9481L215.508 37.1954C215.598 37.1591 215.694 37.1395 215.791 37.1376H218.156C219.154 37.1376 220.125 36.736 220.829 36.0325L226.36 30.4964C226.864 30.0159 227.534 29.7479 228.231 29.7479C228.928 29.7479 229.598 30.0159 230.103 30.4964L235.615 36.0089C236.316 36.7124 237.29 37.114 238.285 37.114H240.209C240.314 37.114 240.416 37.1402 240.508 37.177L244.74 32.9455C246.919 30.7667 246.919 27.2309 244.74 25.0521Z" fill="#3EB57C"/>
<path d="M123.345 11H71.6207C69.621 11 68 12.621 68 14.6207V47.7241C68 49.7238 69.621 51.3448 71.6207 51.3448H123.345C125.344 51.3448 126.966 49.7238 126.966 47.7241V14.6207C126.966 12.621 125.344 11 123.345 11Z" fill="white" stroke="#F3F3F3" stroke-width="1.03448"/>
<path d="M102.981 40.4604H92.2734V21.3594H102.981V40.4604Z" fill="#FF5F00"/>
<path d="M92.9546 30.9057C92.9546 27.0309 94.7824 23.5794 97.6287 21.3551C95.5473 19.7286 92.9204 18.7578 90.0654 18.7578C83.3068 18.7578 77.8281 24.1965 77.8281 30.9057C77.8281 37.6147 83.3068 43.0534 90.0654 43.0534C92.9204 43.0534 95.5473 42.0826 97.6287 40.4561C94.7824 38.2319 92.9546 34.7803 92.9546 30.9057Z" fill="#EB001B"/>
<path d="M117.419 30.9057C117.419 37.6147 111.94 43.0534 105.181 43.0534C102.326 43.0534 99.6994 42.0826 97.6172 40.4561C100.464 38.2319 102.292 34.7803 102.292 30.9057C102.292 27.0309 100.464 23.5794 97.6172 21.3551C99.6994 19.7286 102.326 18.7578 105.181 18.7578C111.94 18.7578 117.419 24.1965 117.419 30.9057Z" fill="#F79E1B"/>
<rect y="12" width="58" height="40" rx="4" fill="white"/>
<path d="M21.5528 39.5929L24.1189 24.5344H28.2233L25.6553 39.5929H21.5528ZM40.4843 24.859C39.6713 24.5539 38.397 24.2266 36.8058 24.2266C32.75 24.2266 29.8933 26.2689 29.8688 29.1961C29.846 31.3599 31.9084 32.567 33.4653 33.2873C35.063 34.0256 35.6 34.4962 35.5923 35.1552C35.5821 36.1646 34.3165 36.6256 33.1367 36.6256C31.494 36.6256 30.6212 36.3973 29.2732 35.8353L28.7441 35.596L28.1682 38.9669C29.1269 39.3875 30.8996 39.7515 32.7403 39.7704C37.055 39.7704 39.8559 37.7513 39.8877 34.6254C39.903 32.9123 38.8096 31.6089 36.4415 30.534C35.0069 29.8374 34.1283 29.3726 34.1376 28.6672C34.1376 28.0413 34.8813 27.3719 36.4883 27.3719C37.8303 27.3511 38.8028 27.6438 39.5603 27.9489L39.9281 28.1226L40.4843 24.859ZM51.0467 24.5342H47.8751C46.8927 24.5342 46.1573 24.8023 45.7259 25.7829L39.6301 39.5829H43.9402C43.9402 39.5829 44.6447 37.7275 44.8041 37.32C45.2751 37.32 49.4622 37.3265 50.0607 37.3265C50.1835 37.8537 50.5601 39.5829 50.5601 39.5829H54.3687L51.0467 24.5337V24.5342ZM46.0146 34.258C46.3541 33.3904 47.65 30.0485 47.65 30.0485C47.6258 30.0886 47.987 29.1766 48.1941 28.6113L48.4715 29.9096C48.4715 29.9096 49.2574 33.5041 49.4217 34.2578H46.0146V34.258ZM18.0684 24.5342L14.05 34.8034L13.622 32.7166C12.8738 30.3109 10.5431 27.7045 7.9375 26.3996L11.6119 39.5689L15.9546 39.564L22.4164 24.534L18.0684 24.5339" fill="#0E4595"/>
<path d="M10.3038 24.5391H3.68527L3.63281 24.8524C8.78197 26.0988 12.189 29.1111 13.6036 32.7308L12.1644 25.8108C11.916 24.8573 11.1954 24.5727 10.304 24.5394" fill="#F2AE14"/>
</svg>
