<svg width="149" height="149" viewBox="0 0 149 149" fill="none" xmlns="http://www.w3.org/2000/svg">
<path d="M15.9681 14.8345L29.7408 97.5006C29.9923 99.2321 30.8521 100.818 32.1661 101.973C33.5522 103.202 35.3494 103.867 37.202 103.834H118.667C120.224 103.835 121.742 103.345 123.005 102.435C124.268 101.524 125.213 100.239 125.705 98.7615L147.955 32.0115C148.326 30.8965 148.428 29.7093 148.25 28.5476C148.073 27.3859 147.622 26.283 146.934 25.3298C146.247 24.3766 145.343 23.6004 144.297 23.0651C143.25 22.5298 142.092 22.2509 140.917 22.2511H32.2403L29.5925 6.30531C29.3207 4.48342 28.376 2.82954 26.9448 1.6699C25.5883 0.561618 23.8827 -0.0296773 22.1313 0.00114705H7.41667C5.44965 0.00114705 3.56319 0.782543 2.17229 2.17344C0.781396 3.56433 0 5.45079 0 7.41781C0 9.38484 0.781396 11.2713 2.17229 12.6622C3.56319 14.0531 5.44965 14.8345 7.41667 14.8345H15.9681ZM43.3653 89.0011L34.71 37.0845H130.63L113.319 89.0011H43.3653ZM59.3333 133.501C59.3333 137.435 57.7705 141.208 54.9888 143.99C52.207 146.772 48.434 148.334 44.5 148.334C40.566 148.334 36.793 146.772 34.0113 143.99C31.2295 141.208 29.6667 137.435 29.6667 133.501C29.6667 129.567 31.2295 125.794 34.0113 123.012C36.793 120.231 40.566 118.668 44.5 118.668C48.434 118.668 52.207 120.231 54.9888 123.012C57.7705 125.794 59.3333 129.567 59.3333 133.501ZM126.083 133.501C126.083 137.435 124.521 141.208 121.739 143.99C118.957 146.772 115.184 148.334 111.25 148.334C107.316 148.334 103.543 146.772 100.761 143.99C97.9795 141.208 96.4167 137.435 96.4167 133.501C96.4167 129.567 97.9795 125.794 100.761 123.012C103.543 120.231 107.316 118.668 111.25 118.668C115.184 118.668 118.957 120.231 121.739 123.012C124.521 125.794 126.083 129.567 126.083 133.501Z" fill="#0D0D0D"/>
</svg>
