<svg width="24" height="24" viewBox="0 0 24 24" fill="none" xmlns="http://www.w3.org/2000/svg">
<path d="M12 23C5.92492 23 1 18.0751 1 12C1 5.92487 5.92492 1 12 1C18.0751 1 23 5.92487 23 12C23 13.7597 22.5868 15.4228 21.8522 16.8977C21.657 17.2897 21.592 17.7377 21.7052 18.1607L22.3603 20.6094C22.6448 21.6723 21.6723 22.6447 20.6093 22.3604L18.1607 21.7052C17.7377 21.592 17.2897 21.657 16.8977 21.8521C15.4228 22.5868 13.7597 23 12 23Z" stroke="white" stroke-width="1.5"/>
<path opacity="0.5" d="M16 12H15.991M12.009 12H12M8.009 12H8" stroke="white" stroke-width="3" stroke-linecap="round" stroke-linejoin="round"/>
</svg>
