<svg width="25" height="23" viewBox="0 0 25 23" fill="none" xmlns="http://www.w3.org/2000/svg">
<path d="M21.3636 3.91C21.2578 3.76717 21.1205 3.65125 20.9627 3.57141C20.805 3.49157 20.631 3.45 20.4545 3.45H15.9091V2.3C15.9091 1.69 15.6696 1.10499 15.2434 0.673654C14.8172 0.242321 14.2391 0 13.6364 0H2.27273C1.66996 0 1.09189 0.242321 0.665666 0.673654C0.239447 1.10499 0 1.69 0 2.3V17.25C0 17.555 0.119724 17.8475 0.332833 18.0632C0.545943 18.2788 0.834981 18.4 1.13636 18.4H2.27273C2.27273 19.62 2.75162 20.79 3.60406 21.6527C4.4565 22.5154 5.61265 23 6.81818 23C8.02371 23 9.17987 22.5154 10.0323 21.6527C10.8847 20.79 11.3636 19.62 11.3636 18.4H13.6364C13.6364 19.62 14.1153 20.79 14.9677 21.6527C15.8201 22.5154 16.9763 23 18.1818 23C19.3873 23 20.5435 22.5154 21.3959 21.6527C22.2484 20.79 22.7273 19.62 22.7273 18.4C23.33 18.4 23.9081 18.1577 24.3343 17.7263C24.7606 17.295 25 16.71 25 16.1V9.2C25 8.95117 24.9203 8.70906 24.7727 8.51L21.3636 3.91ZM6.81818 20.7C6.36868 20.7 5.92927 20.5651 5.55552 20.3124C5.18177 20.0597 4.89047 19.7004 4.71846 19.2802C4.54644 18.8599 4.50143 18.3974 4.58912 17.9513C4.67682 17.5051 4.89327 17.0953 5.21112 16.7737C5.52897 16.452 5.93393 16.2329 6.37479 16.1442C6.81566 16.0554 7.27263 16.101 7.68792 16.2751C8.1032 16.4492 8.45815 16.744 8.70788 17.1222C8.95762 17.5004 9.09091 17.9451 9.09091 18.4C9.09091 19.01 8.85146 19.595 8.42524 20.0263C7.99902 20.4577 7.42095 20.7 6.81818 20.7ZM13.6364 16.1H10.7318C10.338 15.4013 9.76845 14.8205 9.08111 14.4165C8.39377 14.0125 7.61305 13.7997 6.81818 13.7997C6.02332 13.7997 5.2426 14.0125 4.55526 14.4165C3.86791 14.8205 3.29841 15.4013 2.90455 16.1H2.27273V9.2H13.6364V16.1ZM13.6364 4.6V6.9H2.27273V2.3H13.6364V4.6ZM18.1818 20.7C17.7323 20.7 17.2929 20.5651 16.9192 20.3124C16.5454 20.0597 16.2541 19.7004 16.0821 19.2802C15.9101 18.8599 15.8651 18.3974 15.9528 17.9513C16.0405 17.5051 16.2569 17.0953 16.5748 16.7737C16.8926 16.452 17.2976 16.2329 17.7384 16.1442C18.1793 16.0554 18.6363 16.101 19.0516 16.2751C19.4668 16.4492 19.8218 16.744 20.0715 17.1222C20.3213 17.5004 20.4545 17.9451 20.4545 18.4C20.4545 19.01 20.2151 19.595 19.7889 20.0263C19.3627 20.4577 18.7846 20.7 18.1818 20.7ZM22.7273 16.1H22.0955C21.8021 15.5746 21.408 15.1138 20.9361 14.7447C20.4643 14.3757 19.9243 14.1059 19.3479 13.9512C18.7715 13.7965 18.1703 13.76 17.5797 13.8438C16.9892 13.9276 16.4212 14.1301 15.9091 14.4394V5.75H19.8864L22.7273 9.58295V16.1Z" fill="#262626"/>
</svg>
