<svg width="17" height="17" viewBox="0 0 17 17" fill="none" xmlns="http://www.w3.org/2000/svg">
<path d="M7.30278 13.606C10.7837 13.606 13.6056 10.7842 13.6056 7.30327C13.6056 3.82234 10.7837 1.00049 7.30278 1.00049C3.82185 1.00049 1 3.82234 1 7.30327C1 10.7842 3.82185 13.606 7.30278 13.606Z" stroke="#3B3B3B" stroke-linejoin="round"/>
<mask id="path-2-inside-1_231_1630" fill="white">
<path d="M16.1718 16.8578C16.3612 17.047 16.6681 17.047 16.8575 16.8578C17.0468 16.6684 17.0468 16.3614 16.8575 16.172L16.1718 16.8578ZM16.8575 16.172L12.0092 11.3237L11.3235 12.0095L16.1718 16.8578L16.8575 16.172Z"/>
</mask>
<path d="M16.1718 16.8578C16.3612 17.047 16.6681 17.047 16.8575 16.8578C17.0468 16.6684 17.0468 16.3614 16.8575 16.172L16.1718 16.8578ZM16.8575 16.172L12.0092 11.3237L11.3235 12.0095L16.1718 16.8578L16.8575 16.172Z" fill="white"/>
<path d="M15.9736 15.2881L15.2879 15.9739L17.0557 17.7416L17.7414 17.0559L15.9736 15.2881ZM16.1718 16.8578L14.404 18.6255L14.4045 18.626L16.1718 16.8578ZM16.8575 16.8578L18.6248 18.626L18.6257 18.6251L16.8575 16.8578ZM16.8575 16.172L18.6257 14.4047L18.6253 14.4043L16.8575 16.172ZM12.0092 11.3237L13.777 9.55596L12.0092 7.7882L10.2415 9.55596L12.0092 11.3237ZM11.3235 12.0095L9.55572 10.2417L7.78795 12.0095L9.55572 13.7772L11.3235 12.0095ZM14.4045 18.626C15.57 19.791 17.4593 19.791 18.6248 18.626L15.0902 15.0895C15.877 14.3031 17.1523 14.3031 17.9391 15.0895L14.4045 18.626ZM18.6257 18.6251C19.7907 17.4595 19.7907 15.5703 18.6257 14.4047L15.0893 17.9393C14.3029 17.1525 14.3029 15.8773 15.0893 15.0904L18.6257 18.6251ZM18.6253 14.4043L13.777 9.55596L10.2415 13.0915L15.0898 17.9398L18.6253 14.4043ZM10.2415 9.55596L9.55572 10.2417L13.0913 13.7772L13.777 13.0915L10.2415 9.55596ZM9.55572 13.7772L14.404 18.6255L17.9395 15.09L13.0913 10.2417L9.55572 13.7772Z" fill="#3B3B3B" mask="url(#path-2-inside-1_231_1630)"/>
</svg>
