<svg width="55" height="55" viewBox="0 0 55 55" fill="none" xmlns="http://www.w3.org/2000/svg">
<rect y="0.521851" width="55" height="54.1066" rx="10" fill="#E7E7E7"/>
<path d="M36.2734 15.0307C36.7387 15.5022 37 16.1417 37 16.8085C37 17.4753 36.7387 18.1147 36.2734 18.5863L23.9899 31.0335L36.2734 43.4807C36.7255 43.9549 36.9756 44.5901 36.9699 45.2494C36.9643 45.9087 36.7033 46.5394 36.2432 47.0056C35.7831 47.4719 35.1607 47.7363 34.5101 47.7421C33.8594 47.7478 33.2326 47.4943 32.7646 47.0363L18.7266 32.8113C18.2613 32.3397 18 31.7003 18 31.0335C18 30.3667 18.2613 29.7272 18.7266 29.2557L32.7646 15.0307C33.2299 14.5593 33.861 14.2944 34.519 14.2944C35.177 14.2944 35.8081 14.5593 36.2734 15.0307Z" fill="#5D5D5D"/>
</svg>
