<svg width="40" height="38" viewBox="0 0 40 38" fill="none" xmlns="http://www.w3.org/2000/svg">
<path d="M13.1346 7.72213L19.8153 2M19.8153 2L26.496 7.72213M19.8153 2V21.0738M8.68124 15.3516C6.60603 15.3516 5.56842 15.3516 4.74992 15.642C3.65863 16.0291 2.79106 16.7723 2.33902 17.7071C2 18.408 2 19.2963 2 21.0738V30.2292C2 32.3657 2 33.4332 2.48544 34.2492C2.91243 34.9669 3.59329 35.5517 4.43134 35.9174C5.38312 36.3328 6.62972 36.3328 9.11923 36.3328H30.5125C33.0019 36.3328 34.2468 36.3328 35.1986 35.9174C36.0365 35.5517 36.7186 34.9669 37.1455 34.2492C37.6306 33.434 37.6306 32.3674 37.6306 30.2351V21.0738C37.6306 19.2963 37.6303 18.408 37.2914 17.7071C36.8393 16.7723 35.9724 16.0291 34.8812 15.642C34.0626 15.3516 33.0251 15.3516 30.9498 15.3516" stroke="#262626" stroke-width="3" stroke-linecap="round" stroke-linejoin="round"/>
</svg>
